<svg width="20" height="16" viewBox="0 0 20 16" fill="none" xmlns="http://www.w3.org/2000/svg">
<path fill-rule="evenodd" clip-rule="evenodd" d="M20 12.5279C20 11.1983 19.2012 10.1184 18.5657 9.39193C18.2416 9.0213 18 8.56248 18 8C18 7.43752 18.2416 6.97869 18.5657 6.60807C19.2012 5.88156 20 4.80171 20 3.47213C20 1.55452 18.4455 -2.77719e-06 16.5279 0L3.47211 1.90393e-05C1.55452 2.18165e-05 0 1.55454 0 3.47213C0 4.80171 0.798764 5.88156 1.43426 6.60807C1.75845 6.97868 2 7.43751 2 8C2 8.56249 1.75845 9.02131 1.43426 9.39193C0.798767 10.1184 0 11.1983 0 12.5279C0 14.4455 1.55453 16 3.47213 16L16.5279 16C18.4455 16 20 14.4455 20 12.5279ZM17.0604 10.7087C17.6579 11.3918 18 11.9847 18 12.5279C18 13.3409 17.3409 14 16.5279 14L3.47213 14C2.65909 14 2 13.3409 2 12.5279C2 11.9847 2.34212 11.3918 2.93962 10.7087C3.47642 10.095 4 9.18697 4 8C4 6.81302 3.47642 5.90497 2.93962 5.29129C2.34211 4.60822 2 4.01531 2 3.47213C2 2.65911 2.65909 2.00002 3.47211 2.00002L16.5279 2C17.3409 2 18 2.65909 18 3.47213C18 4.01531 17.6579 4.60822 17.0604 5.2913C16.5236 5.90498 16 6.81303 16 8C16 9.18697 16.5236 10.095 17.0604 10.7087ZM8 5C7.44772 5 7 5.44772 7 6C7 6.55229 7.44772 7 8 7C8.55229 7 9 6.55229 9 6C9 5.44772 8.55229 5 8 5ZM8.70711 10.7071L12.7071 6.70711C13.0976 6.31658 13.0976 5.68342 12.7071 5.29289C12.3166 4.90237 11.6834 4.90237 11.2929 5.29289L7.29289 9.29289C6.90237 9.68342 6.90237 10.3166 7.29289 10.7071C7.68342 11.0976 8.31658 11.0976 8.70711 10.7071ZM12 11C11.4477 11 11 10.5523 11 10C11 9.44772 11.4477 9 12 9C12.5523 9 13 9.44772 13 10C13 10.5523 12.5523 11 12 11Z" fill="#FF4611"/>
</svg>
